<?xml version="1.0" encoding="UTF-8" standalone="no"?>
<!-- Created with Inkscape (http://www.inkscape.org/) -->

<svg
   width="131.63792mm"
   height="136.50893mm"
   viewBox="0 0 131.63792 136.50893"
   version="1.1"
   id="svg1"
   xmlns="http://www.w3.org/2000/svg"
   xmlns:svg="http://www.w3.org/2000/svg">
  <defs
     id="defs1" />
  <g
     id="layer1"
     transform="translate(-29.85663,-97.285478)">
    <circle
       style="display:none;fill:#000000;stroke-width:0.456632"
       id="path1"
       cx="97.39286"
       cy="166.36203"
       r="69.398003" />
    <g
       id="text1"
       style="font-size:3.175px;stroke-width:0.264583"
       aria-label="MBRS.">
      <path
         style="font-weight:bold;font-size:45.1556px;-inkscape-font-specification:'sans-serif Bold';fill:#ffffff"
         d="m 93.929143,111.89743 c -0.36075,-0.26947 -0.71898,-0.54301 -1.07473,-0.82064 -1.172321,-0.91515 -2.31511,-1.87224 -3.430735,-2.87182 -1.207887,-1.08362 -2.37874,-2.21427 -3.509483,-3.39118 7.37982,-26.994513 5.650413,-49.224025 4.923502,-57.074789 -0.511143,6.970286 -3.262183,19.786361 -5.001499,26.897551 -1.467539,-0.694132 -2.755354,-1.315123 -4.222463,-2.017271 0.04134,0.01949 -0.711651,-0.334856 -0.670308,-0.31537 -1.371367,-10.431745 -4.44189,-15.433717 -5.947931,-21.069892 -0.770178,9.018232 5.592601,15.680336 -1.719541,35.330918 -0.002,-0.0038 -0.134835,-0.256297 -0.136851,-0.260123 -1.370109,-2.605046 -2.594731,-5.003495 -3.998076,-7.171096 3.797063,-19.379825 6.566591,-23.348924 -2.636582,-39.705552 1.660371,-1.701268 3.20985,-3.692116 4.732234,-5.883344 0.415986,-0.599154 0.830312,-1.21339 1.244157,-1.840305 5.665452,7.193989 7.555931,14.307273 8.941354,19.05155 0.0961,0.330678 2.082875,7.194786 2.210592,7.643087 1.853691,-7.164375 5.344208,-17.999992 -2.017152,-41.095202 1.189284,-1.775973 2.428454,-3.543548 3.737872,-5.285899 0.883195,-1.17411 1.795564,-2.3337089 2.742112,-3.4728686 C 88.382912,8.199241 88.673093,7.8553957 88.966252,7.5137548 100.76905,41.749685 101.54957,74.101729 93.929143,111.89743 Z M 133.41839,77.390734 c 0.23131,5.469455 0.16166,11.066938 -0.26935,16.484374 -0.41796,5.444526 -1.1307,10.585072 -2.22505,14.945262 -0.4754,1.93262 -0.99035,3.71491 -1.5482,5.31664 -0.32364,0.92898 -0.66073,1.79443 -1.01153,2.5909 -0.65157,1.47855 -1.3469,2.71101 -2.08429,3.66782 -1.80705,2.36875 -4.17141,3.42239 -7.00824,2.84967 -4.01755,-0.81109 -7.95161,-2.01823 -11.79401,-3.62394 -1.58035,-0.66092 -3.14022,-1.3857 -4.67698,-2.17771 5.901,-43.218157 5.19953,-75.738345 -6.420539,-117.43932101 1.322085,-1.15121479 2.685472,-2.24484409 4.090919,-3.27443709 2.88176,-2.1120834 5.91739,-3.9413857 9.09774,-5.4400072 2.94586,-1.3881257 5.29805,-1.5414697 6.86972,-0.8227836 1.53546,0.6897137 3.20566,2.7150419 4.93651,5.8920352 0.0771,0.1415017 0.15427,0.2851869 0.23149,0.4310308 0.41163,0.7849898 0.80735,1.6308361 1.18678,2.53202999 0,2.1e-7 0,4.1e-7 0,6.2e-7 1.3497,3.20526889 2.48137,7.08308539 3.39147,11.36032829 1.17151,5.387587 1.96551,11.091627 2.4018,16.719059 0.5048,6.511013 0.42205,11.549496 -0.12758,15.651273 -0.30103,2.207309 -0.72878,4.085766 -1.26988,5.680877 -0.23918,0.704533 -0.50107,1.355574 -0.78467,1.955326 0,0 0,1e-6 0,1e-6 -0.25724,0.542907 -0.53278,1.044302 -0.826,1.505358 5e-5,7.7e-4 0.029,0.532293 0.029,0.533062 0.32254,0.180004 0.63691,0.393284 0.94306,0.6397 0,0 0,10e-7 0,10e-7 0.32265,0.259143 0.63621,0.555125 0.94048,0.887632 0,0 1e-5,1e-6 1e-5,1e-6 1.30377,1.423317 2.43864,3.521199 3.3856,6.280077 1.39459,4.021574 2.22017,9.253125 2.54169,16.855741 z M 120.58522,34.969798 c -0.18502,-1.980045 -0.52506,-4.028873 -1.02918,-6.139935 -0.49102,-2.119664 -1.15688,-3.717876 -1.97554,-4.671881 -0.73203,-0.848464 -1.56086,-1.180036 -2.47751,-0.968193 -0.90441,0.143164 -2.17408,0.481272 -3.75721,1.059737 -0.25267,0.09232 -0.50463,0.185953 -0.75589,0.280864 1.41465,9.43778 2.21566,17.208588 2.71025,23.738008 0.40783,-0.05713 0.81659,-0.113331 1.22639,-0.168543 1.24438,-0.167651 2.30425,-0.365401 3.18035,-0.60587 0.87458,-0.240047 1.54518,-0.766009 2.00314,-1.6057 0.64633,-1.138758 1.02071,-2.577918 1.10371,-4.36059 0.079,-1.829564 0.0111,-3.993424 -0.22851,-6.557923 0,0 0,2.6e-5 0,2.6e-5 z m 4.20563,41.743895 c -0.0833,-3.530591 -0.35834,-6.062977 -0.80565,-7.796765 -0.43499,-1.780528 -1.13459,-3.06916 -2.08719,-3.905953 -0.65056,-0.573396 -1.52754,-0.877476 -2.63007,-0.929665 -1.1038,-0.05225 -2.24593,-0.08577 -3.43523,-0.104489 -0.58002,-0.0091 -1.15846,-0.01949 -1.7356,-0.03123 0.19956,7.181949 0.24266,16.153934 -0.082,26.932057 0.20577,0.04505 0.41175,0.08934 0.61795,0.132876 2.35229,0.49662 4.15587,0.743646 5.16666,0.833262 1.05053,0.09314 2.01514,-0.596087 2.88915,-2.014277 0.88618,-1.412113 1.46753,-3.306723 1.75286,-5.564861 0.29876,-2.310124 0.41275,-4.854178 0.34916,-7.550968 0,0 0,1e-5 0,1e-5 z m 30.73036,-38.653714 c -0.0438,-2.763111 -0.2234,-5.317185 -0.55364,-7.569575 -0.33066,-2.25523 -0.88481,-4.209657 -1.68864,-5.768562 -0.56049,-1.085917 -1.21879,-1.827552 -1.9817,-2.182524 -0.76121,-0.416087 -1.65435,-0.732782 -2.67783,-0.927771 -1.03154,-0.196527 -2.06874,-0.373775 -3.11193,-0.529934 0.23,11.847036 0.67454,23.679285 0.99917,31.534919 0.82799,0.0199 1.65342,0.04413 2.47649,0.07225 1.28288,0.04382 2.34333,-0.109152 3.18549,-0.460978 0.84155,-0.35157 1.5263,-1.20491 2.05608,-2.571237 0.50463,-1.326554 0.85678,-2.803904 1.05874,-4.464644 0.21465,-1.706168 0.28717,-4.017595 0.23777,-7.131928 0,0 0,-1.4e-5 0,-1.4e-5 z m 20.94812,69.394321 c -1.6505,1.41941 -3.39363,2.80175 -5.23643,4.11825 -1.4037,1.00269 -2.85227,1.96316 -4.35044,2.87768 -0.17854,-0.37842 -0.35473,-0.75533 -0.52862,-1.13064 -7.22035,-15.587895 -12.35687,-33.133635 -15.26834,-43.014597 -1.23025,0.05724 -2.46165,0.11138 -3.70635,0.162918 0.70389,11.780542 1.97795,28.001947 5.65232,50.470269 -0.2979,0.10125 -0.59646,0.20046 -0.89566,0.29764 -2.9102,0.94446 -5.87252,1.69318 -8.88407,2.23337 -3.3087,-32.865607 -6.34971,-98.328638 -8.00435,-136.508907 3.09961,0.32809 6.17781,0.936895 9.21901,1.795223 2.61304,0.73708 5.18295,1.6551155 7.70418,2.7286552 2.23399,0.9512375 4.06815,2.5538005 5.49289,4.5819515 0.6613,0.9413857 1.26013,2.1698492 1.80414,3.65082948 0.63154,1.71723072 1.18126,3.75033782 1.67592,6.04202892 0.80409,3.6720372 1.3474,7.7920509 1.74786,12.0759659 0.0639,0.687479 0.1242,1.380814 0.18131,2.078019 0.42014,4.87098 0.59021,10.654642 0.58296,16.270643 -0.009,7.293323 -0.24703,12.167707 -0.99704,16.314661 0,0 0,10e-7 0,10e-7 -0.0697,0.383373 -0.14331,0.756301 -0.22091,1.119142 -0.81201,3.855808 -2.01511,7.1152 -3.593,9.865483 0,0 0,0 0,0 -0.11817,0.206491 -0.23859,0.410269 -0.36125,0.611302 0.15863,0.51689 0.3183,1.034544 0.47854,1.551468 1.64058,5.276607 3.69178,11.623037 5.79807,17.356397 2.68031,7.322433 6.3497,16.195672 11.70926,24.452247 z M 197.8275,74.590569 c -1.01947,7.397215 -4.01602,11.24547 -5.57945,14.187353 -1.6455,3.089517 -1.83475,6.295808 -4.49915,9.606129 -0.68195,0.847273 -1.41337,1.575445 -2.22733,2.126859 -1.03288,0.70024 -2.1548,1.08274 -3.35251,1.07382 -2.15573,-0.0721 -4.42408,-0.90302 -6.69838,-2.509075 -2.89907,-8.903191 -4.01804,-16.929604 -4.61677,-23.84333 0.27061,-0.02824 0.54108,-0.05594 0.81139,-0.08304 1.85942,3.605352 3.86264,6.182228 5.92906,7.754922 0.83851,0.633363 1.63489,1.083106 2.38885,1.37058 1.10913,0.425443 2.12214,0.497053 3.06822,0.30149 0.4155,-0.08589 0.9309,-0.291694 1.59359,-0.593514 0.65656,-0.299026 1.19536,-0.681353 1.61408,-1.153025 0.5101,-0.603944 0.95239,-1.317305 1.32013,-2.153923 0.37896,-0.832552 0.61339,-2.077002 0.68217,-3.768141 0.0642,-1.578152 -0.16612,-2.961369 -0.73922,-4.171279 -0.55408,-1.235811 -1.41471,-2.215223 -2.55929,-2.918217 -1.19992,-0.738712 -2.46033,-1.42475 -3.77876,-2.064173 -0.80657,-0.416555 -1.58027,-0.89376 -2.32494,-1.436596 -0.45747,-0.333254 -0.90418,-0.69075 -1.3405,-1.0733 -2.61331,-2.259818 -4.55768,-5.358779 -5.80827,-9.372505 -1.21694,-3.980559 -1.99169,-9.264442 -2.03209,-15.93028 -0.0551,-9.096338 1.65068,-17.855012 5.26411,-23.701396 1.96863,-3.191896 4.18313,-5.056646 6.4252,-5.561672 1.94223,-0.436057 3.78791,0.15855 5.51972,1.513835 1.8828,1.473453 3.36579,3.479993 4.73914,5.682744 1.26429,1.959042 2.66875,4.265365 3.62707,5.852815 -1.14592,5.604238 -0.42629,11.875214 0.30194,17.923139 -0.33251,0.0049 -0.66295,0.0078 -0.99136,0.0085 -1.70272,-2.555509 -3.61129,-4.852348 -5.49162,-6.848419 -1.90661,-2.073929 -3.66269,-3.491737 -5.50359,-4.006374 -0.65001,-0.181715 -1.30332,-0.228876 -1.96446,-0.12738 -0.64544,0.06293 -1.28152,0.386613 -1.9053,0.985549 -0.55069,0.489015 -1.03728,1.352491 -1.44232,2.578773 -0.0444,0.1299 -0.0863,0.262679 -0.12582,0.398289 0,0 0,10e-7 0,10e-7 -0.31849,1.099442 -0.47767,2.383407 -0.4694,3.820265 0.01,1.710566 0.19027,3.146926 0.52241,4.310164 0.1419,0.495361 0.31196,0.943572 0.50965,1.345245 0.66097,1.306368 1.89279,2.57067 3.73854,3.721133 1.21256,0.753765 2.4041,1.456749 3.56378,2.11743 1.1702,0.65916 2.48,1.533805 3.91317,2.603294 2.82514,2.141564 5.16849,4.972551 6.61308,8.608183 1.481,3.646802 2.02366,8.212217 1.30523,13.425097 z"
         id="path4"
         transform="translate(-36.647815,110.32519)" />
      <path
         d="m 206.69187,73.295631 h -0.37052 v -0.441833 h 0.37052 z"
         id="path5" />
    </g>
  </g>
</svg>
